<svg width="680" height="440" viewBox="0 0 680 440" fill="none" xmlns="http://www.w3.org/2000/svg">
  <defs>
    <filter id="shadow" x="-8%" y="-6%" width="116%" height="118%">
      <feDropShadow dx="0" dy="4" stdDeviation="10" flood-color="#000" flood-opacity="0.08"/>
    </filter>
  </defs>

  <!-- Card with shadow -->
  <rect x="190" y="60" width="300" height="320" rx="16" fill="white" stroke="#E5E3DD" stroke-width="1" filter="url(#shadow)"/>

  <!-- Document icon -->
  <rect x="317" y="97" width="50" height="64" rx="4" fill="#F0EDE6"/>
  <rect x="313" y="93" width="50" height="64" rx="4" fill="white" stroke="#D6D3CC" stroke-width="0.8"/>
  <!-- Text lines on document -->
  <line x1="323" y1="108" x2="353" y2="108" stroke="#E5E3DD" stroke-width="1.5" stroke-linecap="round"/>
  <line x1="323" y1="116" x2="348" y2="116" stroke="#E5E3DD" stroke-width="1.5" stroke-linecap="round"/>
  <line x1="323" y1="124" x2="351" y2="124" stroke="#E5E3DD" stroke-width="1.5" stroke-linecap="round"/>
  <line x1="323" y1="132" x2="343" y2="132" stroke="#E5E3DD" stroke-width="1.5" stroke-linecap="round"/>
  <line x1="323" y1="140" x2="349" y2="140" stroke="#E5E3DD" stroke-width="1.5" stroke-linecap="round"/>
  <!-- PDF badge -->
  <rect x="340" y="145" width="24" height="13" rx="2.5" fill="#CA8A04"/>
  <text x="352" y="155" text-anchor="middle" font-family="system-ui, sans-serif" font-size="7.5" font-weight="700" fill="white">PDF</text>

  <!-- File name -->
  <text x="340" y="192" text-anchor="middle" font-family="system-ui, sans-serif" font-size="12" font-weight="500" fill="#1C1917">product-requirements.pdf</text>
  <!-- File meta -->
  <text x="340" y="210" text-anchor="middle" font-family="system-ui, sans-serif" font-size="9.5" fill="#A8A29E">24 pages · 2.4 MB</text>

  <!-- Separator -->
  <line x1="220" y1="230" x2="460" y2="230" stroke="#F0EDE6" stroke-width="1"/>

  <!-- Description -->
  <text x="340" y="254" text-anchor="middle" font-family="system-ui, sans-serif" font-size="9" fill="#A8A29E">PRDs, user stories, feature specs</text>

  <!-- Button (gold/amber) -->
  <rect x="220" y="276" width="240" height="44" rx="10" fill="#CA8A04"/>
  <text x="340" y="303" text-anchor="middle" font-family="system-ui, sans-serif" font-size="13" font-weight="500" fill="white">Analyze Spec →</text>

  <!-- Supported formats -->
  <text x="340" y="348" text-anchor="middle" font-family="system-ui, sans-serif" font-size="8" fill="#C4C0B8">.pdf · .docx · .md · .txt</text>
</svg>
